<svg xmlns="http://www.w3.org/2000/svg" viewBox="0 0 64 64" role="img" aria-labelledby="title desc">
  <title id="title">GreenHatx logo</title>
  <desc id="desc">Green and cyan monogram logo for GreenHatx.</desc>
  <defs>
    <linearGradient id="shield" x1="8" y1="8" x2="56" y2="56" gradientUnits="userSpaceOnUse">
      <stop stop-color="#49d17d"/>
      <stop offset="1" stop-color="#6bc9d6"/>
    </linearGradient>
    <filter id="glow" x="-30%" y="-30%" width="160%" height="160%">
      <feGaussianBlur stdDeviation="2.6" result="blur"/>
      <feColorMatrix in="blur" values="0 0 0 0 0.286 0 0 0 0 0.82 0 0 0 0 0.49 0 0 0 .48 0"/>
      <feMerge>
        <feMergeNode/>
        <feMergeNode in="SourceGraphic"/>
      </feMerge>
    </filter>
  </defs>
  <rect width="64" height="64" rx="16" fill="#03100c"/>
  <path d="M32 7 54 16.5v16.8c0 13.1-9.1 20.8-22 24-12.9-3.2-22-10.9-22-24V16.5L32 7Z" fill="url(#shield)" filter="url(#glow)"/>
  <path d="M42.7 26.4c-2.2-3-5.6-4.8-10-4.8-6.7 0-11.5 4.9-11.5 11.4 0 6.8 4.9 11.6 11.9 11.6 5.8 0 10.5-3.5 11.4-9.2H32.7v-5.1h18.1v2.4c0 10.1-7.1 17.2-17.8 17.2-10.8 0-18.6-7.2-18.6-17 0-9.6 7.8-16.6 18.3-16.6 6.7 0 12.4 2.9 15.6 7.8l-5.6 2.3Z" fill="#03100c"/>
  <path d="m44.8 16.4 3.4 3.4-29 29-3.4-3.4 29-29Z" fill="#eef8f1" opacity=".16"/>
</svg>
